<?xml version="1.0" standalone="yes"?>
<svg width="153" height="135">
<path style="fill:#ffffff; stroke:none;" d="M0 0L0 135L106 135L107 135L108 135L109 135L110 135L110 134L109 134L109 133L109 132L108 132L108 131L107 131L107 130L107 129L107 128L107 127L106 127L106 126L105 126L105 125L104 125L104 126L104 127L105 127L105 128L104 128L91.3611 116.056L88.6111 117.583L63.9444 114.944L62.5556 117.333L60.4167 116.056L55 123L54 123L53 123L53 122L53 121L61 105L60 105L60 104L59 104L58 104L58 105L59 105L59 106C58.8479 107.825 58.3513 110.513 58 107L57 106L57 105L57 104L57 103L56 103L56 102L55 102L55 103L55 104L56 104L56 105C53.8524 105.806 42.5336 108.384 44.5718 112.842C45.6244 115.144 52.5854 114.533 49.8426 119.488C47.7213 123.32 31.561 119.996 27 120C27 113.83 27.7677 106.929 29 102C29.7845 98.8622 26.5618 95.8764 28 93C29.6099 89.7802 42.1795 78.7693 39 74C36.198 69.797 32.9932 72.3311 32 72C32.6285 72.2095 33.2453 60.2453 32 59C30.3221 57.3221 25.5643 60.8157 24 58C22.1582 54.6848 30.2934 48 21 48L20.8333 63.5L12.8333 52.6667L10.8333 55L9.83333 46L9.5 37.3333L6 27L11.3333 22.8333L21 9.83334L32.5 6.83333L31 2L32 2L33 2L34 2L34 3L34 4L35 4L35 5L34 5L34 6L35 6L36 6L37 6L37 5L36 5L36 4L37 4L38 4L38 5L39 5L40 5L40 4L40 3L39 3L39 2L40 2L40 1L39 1L38 1L38 0L37 0L36 0L0 0z"/>
<path style="fill:#fcfcfc; stroke:none;" d="M38 0L38 1L38 5L38 4L37 4L36 4L36 5L37 5L37 6L36 6L35 6L34 6L34 5L35 5L35 4L34 4L34 3L34 2L33 2L32 2L31 2L31 3L31 4L32 4L32 3L33 3L33 4L33 5L33 6L33 7L34 7L45 6L46 6L46 7L47 7L47 8L48 8L49 8L49 9L48 9L47 9L46 9L45 9L35 8L34 9L33 9L32 9L32 10L33 10L34 10C37.9779 9.3719 45.1233 11.938 38 14L37 14L36 14L36 15L37 15L38 15L39 15L50 16L51 16L52 16L52 17L53 17L54 17L54 16L54 15L53 15L53 14L54 14L54 13L55 13L55 12L54 12L53 12L53 11C51.8915 8.85221 51.5725 9 54 9L54 8C50.2824 2.22508 44.7626 0.000732422 38 0z"/>
<path style="fill:#ffffff; stroke:none;" d="M48 0L48 1L47 1L47 2L48 2L48 3L48 4L47 4L47 5L48 5L49 5L50 5L51 5C56.7383 10.2327 63.4605 16.0292 68.5463 20.5756C73.7772 25.2518 72.6786 30.2475 81 31C85.9029 24.6939 90.6012 18.0103 95.3387 11.9522C97.0544 9.75822 94.3501 7.49489 97.4931 5.89893C102.411 3.4016 109.912 8.15846 114.625 9.14507C130.165 12.3984 141.939 15.2548 145.838 31.6998C148.453 42.731 137.972 51.8089 139 62L138 62L137 62L137 63L136 63L135 63L134 63L133 63L133 62L132 62L132 61L132 60L133 60C137.793 59.4361 133.698 58.8181 134 56.5C134.096 55.7618 138.164 57.2932 137.667 54.1667C137.353 52.1921 132.389 52.9286 132 48L131 48L124.5 55.8333L125.5 62.6667L119.5 63.5L119.667 69L115.333 74L119.333 86.6667L123 105.833L120.333 114.167L121.833 126L115 135L142 135L151.972 133.972L153 125L153 100L153 0L51 0L50 0L48 0z"/>
<path style="fill:#fefefe; stroke:none;" d="M90 18L90 19L90 20L90 21L90 22L89 22L89 23L89 24L88 24L88 25L88 26L89 26L90 26L90 25L91 25L91 24L92 24L93 24L93 23L94 23L94 22L95 22C99.0972 20.6871 104.583 17.3637 104.056 12.213C103.969 11.3668 100.532 9.95499 100 8L101 8L102 8L103 8L104 8L105 8L106 8L107 8L107 7L106 7L105 7L104 7L104 6L104 5L103 5L102 5L101 5L100 5L99 5L98 5L90 18z"/>
<path style="fill:#bababa; stroke:none;" d="M36 7L35 7L34 7L33 7L32 7L32 8L32 9L33 9L34 9L35 9L35 8L36 8L46 9L47 9L48 9L49 9L49 8L48 8L47 8L47 7L46 7L36 7z"/>
<path style="fill:#e3e3e3; stroke:none;" d="M20 9L20 10L20 11L21 11L22 12L21 12L20 12L19 12L19 13L20 13L20 14L21 14L30 10L31 10L32 10L32 9L32 8L31 8L30 8L30 7L29 7L20 9z"/>
<path style="fill:#e6e6e6; stroke:none;" d="M102 8L101 8L100 8L100 9L100 10L100 11L100 12L101 12L102 12L112 11L112 10L113 10L113 9L114 9L114 8L114 7L113 7L102 8z"/>
<path style="fill:#d8d8d8; stroke:none;" d="M51 8L51 9L51 10L52 10L57 14L57 13L58 13L59 13L59 12L58 12L53 8L51 8z"/>
<path style="fill:#d5d5d5; stroke:none;" d="M116 9L115 9L115 10L114 10L113 10L113 11L114 11L115 11L124 13L124 12L123 12L123 11L124 11L125 11L125 10L124 10L116 9z"/>
<path style="fill:#fdfdfd; stroke:none;" d="M21 15L21 16L22 16L22 17L22 18L22 19L23 19L23 18L24 19L24 20L23 20L23 21L22 21L22 22L21 22L21 23L21 24L22 24L23 24L24 24L24 25L25 25L25 26L25 27L24 27L24 28L24 29L24 30L24 31L25 31L26 31C32.4504 14.659 51.4741 14.1583 62 26C63.8672 28.1006 66.0492 36.4466 68 37.3333C69.5587 38.0419 75.2142 31.9481 79.6667 34.3333C80.6986 34.8862 71.6708 34.7217 72.6667 36.5C75.4599 41.4878 82.2203 34.6934 83 32L84 32L85 32L85 33L84 33L84 34L84 35L84 36L84 37L84 38L84 39L84 40L85 40L85 39L85 38L85 37L85 36L85 35L85 34L86 34L86 33L86 32L87 30L87 29L87 28L87 27C73.5671 33.794 75.6706 23.632 66 18L70 33L71 33L71 34L70 34L69 34C68.412 28.4141 61.8466 13.7633 55 13.5C53.0025 13.4232 53.9803 15.8054 52.6667 16.1667C51.8392 16.3942 37 13.0169 37 14.3333C37 13.9185 43.0477 13.4873 42.3333 12.3333C38.3782 5.94423 24.9864 10.6278 21 15M105 10L105 11L105 12L105 13L104 13L103 13L103 14L102 14L101 14L101 15L101 16L102 16L102 17L103 17L103 18L103 19L104 19L105 19L106 19L107 19L108 19L127 26L127 27L128 27L128 26L128 25L128 24L128 23L128 22L129 22L129 23L129 24L130 24L131 24L132 24L132 23L132 22L131 22L131 21L131 20L130 20L130 19L129 19L128 19L128 20L128 21L127 21L126 21C123.864 17.9831 126.341 15.6085 125.66 14.5262C123.18 10.585 114.872 10.5747 111 11L111 10L110 10L109 10L108 10L107 10L105 10z"/>
<path style="fill:#b8b8b8; stroke:none;" d="M122 11L122 12L128 13L128 12L122 11z"/>
<path style="fill:#fbfbfb; stroke:none;" d="M127 11L127 12L128 12L128 13L127 13L126 13L125 13L124 13L124 14L125 14L126 14L127 14L127 15L128 15L128 16C135.85 20.4068 137.83 28.8772 136 37L136 38L137 38L137 39L137 40L138 40L138 39L139 39L140 39L141 39L141 40L142 40L142 41L142 42L142 43L142 44L143 44L143 43L143 42L143 41L143 40L143 39L143 38L143 37L143 36L143 35L143 34L143 33L143.333 21.1667L135.833 18.3333L136 14L135 14L134 14L133 14L132 14L132 13L131 13L130 13L130 12L130 11L129 11L127 11z"/>
<path style="fill:#b3b3b3; stroke:none;" d="M19 13L15 16L15 17L16 17L16 18L17 18L20 15L20 14L19 13z"/>
<path style="fill:#ababab; stroke:none;" d="M57 13L57 14L57 15L57 16L58 16L59 16L60 16L60 17L61 17L67 29L67 30L68 30L68 31L69 31L69 32L69 33L69 34L70 34L71 34L71 33L70 33L70 32L70 31L70 30L70 29L69 29L69 28L68 28L62 17L62 16L62 15L62 14L61 14L61 15L60 15L60 14L60 13L59 13L57 13z"/>
<path style="fill:#fefefe; stroke:none;" d="M20 14L20 15L19 15L18 15L18 16L19 16L20 16L20 17L20 18L19 18L18 18L18 19L17 19L16 19L20 19L21 19L21 20C11.1836 24.6499 13.5 28.2243 13.5 38C13.5 41.267 9.75195 43.206 11.1667 47C11.6775 48.37 14.9601 48.7028 15 49.5C15.0526 50.5523 11.766 49.5685 12.3333 52C13.3583 56.3929 17.5886 57.7883 18 63L18 64L19 64L20 64L21 64L22 64L22 63C22 60.2744 19.5071 50.9906 21 49C22.6884 46.7487 25.7457 50.2198 26 52C25.7742 50.4192 21.8047 56.8047 24 59C25.1845 60.1845 29.5716 58.0477 31 59C32.9222 60.2815 33 65.7106 33 68L33 69L32 69L32 70L32 71L32 72L33 72L33 71L33 70L34 70L35 70L35 71L35 72L35 73L36 73L37 73L38 73L38 74L39 74L39 73L40 73L40 72L41 72L41 71L40 71L40 70L40 69L40 68L39 68L39 67L39 66L38 66L25.3333 42L22 17L22 16L21 16L21 15L22 15L22 14L20 14z"/>
<path style="fill:#c6c6c6; stroke:none;" d="M91 14L91 15L90 15L90 16L89 16L88 16L88 17L88 18L84 27L84 28L83 28L83 29L83 30L84 30L84 29L85 29L85 28L86 28L86 27L87 28L87 29L87 30L88 30L90 19L90 18L91 18L91 17L91 16L92 16L92 15L91 14z"/>
<path style="fill:#fefefe; stroke:none;" d="M127 15L127 16L126 16L125 16L124 16L123 16L122 16L122 17L122 18L123 18L123 19L124 19L125 19L125 20L126 20L126 21L127 21L128 21L128 20L128 19L129 19L130 19L130 20L131 20L131 21L131 22L124.167 27.1667L129.833 46L128.5 52.3333L131.667 49L137 57C134.832 56.284 133.969 55.7062 134 58L135 58L136 58L136 59L136 60L135 60L134 60L133 60L132 60L132 61L132 62L133 62L133 63L134 63L135 63L136 63L137 63L137 62L138 62L139 62L139 61L139 60L138 60L138 59L139 59C140.54 53.3008 144.659 48.414 141.968 42.1512C140.88 39.6166 137.321 39.4461 136.897 36.7631C135.579 28.409 136.51 24.5526 131 17L131 16L130 16L129 16L128 16L127 15z"/>
<path style="fill:#fafafa; stroke:none;" d="M14 16L14 17L13 17L12 17L12 18L13 18L6.3179 26.3032L10.0239 34.5764L9 48L9 49L10 49L10 50L11 50L11 51L10 51L10 52L10 53L10 54L11 54L11 55L10 55L10 56L11 56L12 56L12 55L12 54L12 53L12 52L12 51L12 50L13 50L14 50L15 50L16 50L16 49L15 49L15 48L14 48L13 48L13 49L12 49L12 48L11 48L11 47L13.8657 24.6119L20 20L21 20L21 19L20 19L19 19L19 20L18 20L17 20L17 21L16 21L16 20L16 19L17 19L18 19L18 18L19 18L20 18L20 17L19 17L18 17L17 17L17 18L16 18L16 17L15 17L14 16z"/>
<path style="fill:#d5d5d5; stroke:none;" d="M43 17L43 18L44 18L50 18L51 18L51 17L50 17L43 17z"/>
<path style="fill:#686868; stroke:none;" d="M40 18L40 19L44 19L40 18z"/>
<path style="fill:#3a3a3a; stroke:none;" d="M30 51L30 52L31 52L31 53L32 53L32 54L32 55L33 55L33 56L34 56L34 57L35 57L35 58L36 58L36 59L37 59L37 60L38 60L38 59L38 58L37 58L37 57L36 57L36 56L36 55L35 55L35 54L34 54L34 53L34 52L33 52L33 51L33 50L32 50L27 39L27 38L27 37L27 36L27 35L27 34L28 34L29 34L30 34L30 35L31 35L32 35L33 35L34 35L34 36L34 37L34 38L36 47L36 48L37 48L37 49L38 49L39 49L39 48L38 48L38 47L39 47L40 47L40 46C39.6299 44.264 35.4769 36.0317 34.2778 34.6944C32.742 32.9818 28.9755 33.7842 28.5833 30.8889C27.1655 20.4212 49.4009 19.6945 55 22L55 23L55 24L56 25L56 24L57 24L58 24L59 24L59 25L59 26L59 27L60 27L61 27L61 28L62 28L62 29L62 30L63 30L64 30L64 29L64 28L64 27L63 27L63 26L62 26L62 25L61 25L61 24L60 24L60 23L59 23L59 22L58 22L58 21L57 21L57 20C49.3282 18.2463 41.3465 17.1211 34.0008 21.1397C23.4182 26.929 22.386 42.5003 30 51z"/>
<path style="fill:#a2a2a2; stroke:none;" d="M51.6667 18.3333L52.3333 18.6667L51.6667 18.3333z"/>
<path style="fill:#989898; stroke:none;" d="M36 19L36 20L39 20L36 19z"/>
<path style="fill:#d0d0d0; stroke:none;" d="M101 19L101 20L102 20L108 20L109 20L109 19L108 19L101 19z"/>
<path style="fill:#606060; stroke:none;" d="M42 20L42 21L41 21L31 25L31 26L31 27L30 27L29 27L29 28L30 28L31 28L31 29L32 29L32 30L33 30L34 30L35 30L35 31L36 31L36 32L37 32C38.8171 28.2746 38.0759 23.3352 42 23L43 23L43 22L43 21L44 21L45 21L46 21L46 20L45 20L44 20L42 20z"/>
<path style="fill:#a9a9a9; stroke:none;" d="M45 21L48 23L47 20L45 21z"/>
<path style="fill:#b5b5b5; stroke:none;" d="M48 20L48 21L51 22L48 20z"/>
<path style="fill:#838383; stroke:none;" d="M98.6667 20.3333L99.3333 20.6667L98.6667 20.3333z"/>
<path style="fill:#3f3f3f; stroke:none;" d="M89 28L89 29L88 29L88 30L87 30L87 31L87 32L87 33L87 34L86 34L86 35L86 36L86 37L85 37L85 38L85 39L85 40L85 41L86 41L86 40L86 39L86 38L87 38L87 37L87 36L87 35L88 35L88 34L89 34L89 33L89 32L90 32L90 31L90 30L90 29C95.345 27.3074 98.9366 23.4758 105 23.0941C120.299 22.1311 128.149 35.4498 124 49L123 49L123 50L122 50L121 50L120 50L120 51L121 51L122 51L122 52L122 53L121 53L121 54L121 55L120 55L120 56L119 56L119 57L119 58L119 59L120 59L120 58L121 58L121 57L121 56L122 56L122 55L123 55L123 54L123 53L124 53L124 52L124 51L125 51L125 50L126 50C134.249 27.3651 103.336 6.98892 89 28z"/>
<path style="fill:#818181; stroke:none;" d="M110.667 20.3333L111.333 20.6667L110.667 20.3333z"/>
<path style="fill:#b0b0b0; stroke:none;" d="M43.3333 21.6667L43.6667 22.3333L43.3333 21.6667z"/>
<path style="fill:#ececec; stroke:none;" d="M44 21L44 25L45 25C46.5539 22.7898 46.2738 22.4142 44 21z"/>
<path style="fill:#f7f7f7; stroke:none;" d="M48 21L51 24L50 21L48 21z"/>
<path style="fill:#727272; stroke:none;" d="M51 21L51 22L46 24L45 24L45 25L46 25L52 24L52 23L52 22L51 21z"/>
<path style="fill:#bebebe; stroke:none;" d="M52 21L52 22L55 23L52 21z"/>
<path style="fill:#dfdfdf; stroke:none;" d="M52 22L52 23L52 24L52 25L57 27L58 27L58 26L58 25L58 24L54 22L52 22z"/>
<path style="fill:#767676; stroke:none;" d="M94.6667 22.3333L95.3333 22.6667L94.6667 22.3333z"/>
<path style="fill:#bfbfbf; stroke:none;" d="M37 23L37 24L41 24L37 23z"/>
<path style="fill:#ffffff; stroke:none;" d="M38 24L38 25L43 24L38 24z"/>
<path style="fill:#7a7a7a; stroke:none;" d="M43.3333 23.6667L43.6667 24.3333L43.3333 23.6667z"/>
<path style="fill:#a2a2a2; stroke:none;" d="M101 23L101 24L102 24L107 26L107 25C105.04 24.3466 104.446 24 107 24L107 23L101 23z"/>
<path style="fill:#666666; stroke:none;" d="M107 23L107 24L101 26L100 26L100 25L100 24L99 24L99 25L99 26L99 27L100 27L108 27L108 26L108 25L108 24L109 24L109 23L107 23z"/>
<path style="fill:#d9d9d9; stroke:none;" d="M109 23L112 27L109 23z"/>
<path style="fill:#999999; stroke:none;" d="M118.667 23.3333L119.333 23.6667L118.667 23.3333z"/>
<path style="fill:#7b7b7b; stroke:none;" d="M58 24L58 29L59 29L58 24z"/>
<path style="fill:#8f8f8f; stroke:none;" d="M91 24L92 25L91 24z"/>
<path style="fill:#d1d1d1; stroke:none;" d="M93 27L93 28L93 29L94 29L99 25L99 24L93 27z"/>
<path style="fill:#c3c3c3; stroke:none;" d="M100.333 24.6667L100.667 25.3333L100.333 24.6667z"/>
<path style="fill:#f8f8f8; stroke:none;" d="M101 24L101 26L103 26L103 24L101 24z"/>
<path style="fill:#eeeeee; stroke:none;" d="M105.667 24.3333L106.333 24.6667L105.667 24.3333z"/>
<path style="fill:#989898; stroke:none;" d="M108 24L110 27L108 24z"/>
<path style="fill:#545454; stroke:none;" d="M112 24L112 25L112 26L112 27L111 27L110 27L110 28L111 28L112 28L118 42L117 43L117 44L117 45L116 45L116 46L116 47L115 47L115 48L114 48L114 49L114 50L115 50L115 51L116 51L116 50L117 50L118 50L118 49L118 48L118 47L118 46L118 45L119 45L119 44L119 43L119 42C121.304 34.5827 122.263 33.5189 115 29L114 29L114 28L113 28L113 27L113 26L113 25L114 25L115 25L115 26L116 26L117 26L117 27L118 27L118 26L118 25L117 25L116 25L116 24L115 24L114 24L112 24z"/>
<path style="fill:#c5c5c5; stroke:none;" d="M34 25L34 26C34.614 28.8508 35.3027 28.8544 38 28L38 27L38 26L34 25z"/>
<path style="fill:#ededed; stroke:none;" d="M35 25L35 27L37 27L37 25L35 25z"/>
<path style="fill:#1c1c1c; stroke:none;" d="M42 25L41 26L40 27L39 28L39 29L38 29L37 29L37 30L37 31L37 32L36 32L35 32L35 33L35 34L35 35L35 36L35 37L35 38L35 39L35 40L35 41L36 41L36 42L36 43L37 43L38 43L39 43L40 43L40 44L41 44L42 44L42 45L43 45L44 45L45 45L46 45L47 45L48 45L49 45L50 45L50 44L50 43L49 43C48.2101 39.8033 44.8221 37.4117 44.4213 34.7708C42.999 25.3987 55.3968 31.4537 59 33L59 34L58 35L59 35L59 36L58 36L58 37L59 37L59 38L58 38L58 39L58 40L57 40L57 41L56 41L56 42L55 42L55 43L55 44L56 44L56 43L57 43L58 43L59 43L59 42L60 42L60 41L61 41L61 40L61 39L61 38L62 38L63 38L63 37L63 36L63 35L63 34L62 34L62 33L61 33L61 32C56.0275 25.1654 49.8676 25.0009 42 25z"/>
<path style="fill:#787878; stroke:none;" d="M52.6667 25.3333L53.3333 25.6667L52.6667 25.3333z"/>
<path style="fill:#ffffff; stroke:none;" d="M113 25C113.614 27.8508 114.303 27.8544 117 27L113 25z"/>
<path style="fill:#898989; stroke:none;" d="M89 26L88 29L89 26z"/>
<path style="fill:#909090; stroke:none;" d="M93 26L94 27L93 26z"/>
<path style="fill:#9d9d9d; stroke:none;" d="M115 28L114 28L114 29L115 29L116 31L121 30L121 31L122 31L122 30L122 29L121 29L121 28L115 28z"/>
<path style="fill:#e5e5e5; stroke:none;" d="M59 27L61 30L59 27z"/>
<path style="fill:#8c8c8c; stroke:none;" d="M60 27L62 30L60 27z"/>
<path style="fill:#1f1f1f; stroke:none;" d="M88 42L88 43L88 44L88 45L88 46L89 46L90 46L90 47L91 47L91 48L92 48L92 49L93 49L93 50L94 50L94 51L95 51L96 51L96 50L95 50L95 49L94 49L94 48L94 47L95 47L96 47L97 47L98 47L98 48L99 48L100 48C105.338 41.9014 94.4474 33.6052 103 31L104 31L105 32L106 32L107 32L108 32L108 31L109 31L110 31L111 31L111 30L112 30L112 29L112 28L111 28L110 28L110 27L109 27L108 27L107 27L106 27L105 27L104 27L103 27L102 27L101 27C92.9694 28.554 89.072 34.205 88 42z"/>
<path style="fill:#e2e2e2; stroke:none;" d="M144 27L142 28L141 31L140 31L140 32L141 32L141 33L146 33L147 33L147 32L146 32L144 27z"/>
<path style="fill:#969696; stroke:none;" d="M29 28L28 33L31 28L29 28z"/>
<path style="fill:#ffffff; stroke:none;" d="M117 28C117.513 30.4751 117.604 30.5746 120 30L117 28z"/>
<path style="fill:#fcfcfc; stroke:none;" d="M31 29L31 34C33.57 32.1915 33.4506 30.8669 31 29z"/>
<path style="fill:#5d5d5d; stroke:none;" d="M45 29L45 30L46 30L51 30L52 30L52 29L51 29L45 29z"/>
<path style="fill:#696969; stroke:none;" d="M64 29L64 30L63 30L63 31L61 32L65 38L64 38L64 39L65 39L66 39L66 40L67 40L67 39L67 38L65 30L64 29z"/>
<path style="fill:#d7d7d7; stroke:none;" d="M90 32L93 29L90 32z"/>
<path style="fill:#6c6c6c; stroke:none;" d="M93.6667 29.3333L94.3333 29.6667L93.6667 29.3333z"/>
<path style="fill:#888888; stroke:none;" d="M34 30L33 34L34 30z"/>
<path style="fill:#bcbcbc; stroke:none;" d="M45 30L45 31L49 31L45 30z"/>
<path style="fill:#858585; stroke:none;" d="M49 30L49 31L49 32L49 33L49 34L50 34C50.512 31.8059 50.7598 31.5979 51 34L52 34L52 33L52 32L52 31L52 30L51 30L49 30z"/>
<path style="fill:#3e3e3e; stroke:none;" d="M53 30L53 31L52 31L44 35L50 45L49 45L48 45L47 45L46 45L45 45L44 45L43 45L43 46L44 46L45 46L46 46L47 46L48 46L49 46C57.5736 46 57.4986 43.1076 59 35L58 34L59 34L59 33L58 33L57 33L57 32L56 32L56 31L56 30L55 30L53 30z"/>
<path style="fill:#bdbdbd; stroke:none;" d="M60 30L63 32L60 30z"/>
<path style="fill:#747474; stroke:none;" d="M86 30L86 34L87 34L86 30z"/>
<path style="fill:#313131; stroke:none;" d="M111 30L111 31L110 31L109 31L109 32L110 32L111 32L111 33L112 33L112 34L112 35L113 37L107 47L106 47L105 47L105 46L104 46L103 46L103 45L103 44L103 43L103 42L103 41L103 40L102 40L101 40L101 41L101 42L101 43L101 44L101 45L101 46L101 47L102 47L102 48L101 48L101 49L102 49L103 49L104 49L105 49L106 49L107 49L108 49L117 39L117 38L117 37L116 37L116 36L116 35L116 34L116 33L116 32L115 32L114 32L114 31L113 31L113 30L111 30z"/>
<path style="fill:#c2c2c2; stroke:none;" d="M119 30L119 32L121 30L119 30z"/>
<path style="fill:#aaaaaa; stroke:none;" d="M143 30L143 31L143 32L143 33L143 45L143 46L143 47L143 48L143 49L143 50L144 50L144 49L144 48L144 47L144 46L144 45L144 44L144 34L145 34L146 35L146 34L146 33L145 33L145 32L145 31L144 31L143 30z"/>
<path style="fill:#808080; stroke:none;" d="M25 31L25 34L26 34L25 31z"/>
<path style="fill:#f5f5f5; stroke:none;" d="M44 31L49 35C48.398 31.6817 47.2882 31.265 44 31z"/>
<path style="fill:#ababab; stroke:none;" d="M74 31L74 32L77 32L74 31z"/>
<path style="fill:#7f7f7f; stroke:none;" d="M99 31L99 32L98 32L98 33L98 34L99 34L99 33L100 33L104 37L105 35L105 34L106 34L107 34L107 33L107 32L106 32L99 31z"/>
<path style="fill:#616161; stroke:none;" d="M108 31L108 32L108 33L109 33L110 33L111 34L111 35L105 34L104 35L104 36L107 40L108 40L109 40L109 41L109 42L109 43L110 43L110 42L110 41L111 41L111 42L112 42L112 41L112 40L113 40L112 33L111 32L110 32L109 32L108 31z"/>
<path style="fill:#d4d4d4; stroke:none;" d="M120 37C123.488 35.9203 124.12 34.6107 124 31L120 37z"/>
<path style="fill:#d2d2d2; stroke:none;" d="M9 32L8 37L9 37L11 32L9 32z"/>
<path style="fill:#b1b1b1; stroke:none;" d="M83 32L83 39L83 40L84 40L84 39L85 33L85 32L83 32z"/>
<path style="fill:#e3e3e3; stroke:none;" d="M89.3333 32.6667L89.6667 33.3333L89.3333 32.6667z"/>
<path style="fill:#909090; stroke:none;" d="M90.3333 32.6667L90.6667 33.3333L90.3333 32.6667z"/>
<path style="fill:#f0f0f0; stroke:none;" d="M98 34L98 35C101.238 35.3892 102.379 35.3404 103 32L98 34z"/>
<path style="fill:#9c9c9c; stroke:none;" d="M107 32L107 33L110 37L111 37L111 36L107 32z"/>
<path style="fill:#909090; stroke:none;" d="M44.3333 33.6667L44.6667 34.3333L44.3333 33.6667z"/>
<path style="fill:#b5b5b5; stroke:none;" d="M45 33L45 34L49 36L49 35L45 33z"/>
<path style="fill:#9f9f9f; stroke:none;" d="M62 33L64 38L65 38L62 33z"/>
<path style="fill:#939393; stroke:none;" d="M73 33L73 34L72 34L72 35C60.5388 37.9405 66.2236 53.7767 60 61L60 62L59 62L59 63L58 63L58 64L57 64L57 65L56 65L56 66L56 67L57 67L57 66L58 66L58 65L59 65L60 65L60 66L61 66L61 65L62 65L62 64L63 64L63 63L64 63L64 62L65 62L73.3333 57.6667L69 55L73.3333 53.6667L69.8333 51.1667L71.5 43.5L67.3333 45L68.6667 40.8333L77 39L78 39L79 39L80 39L81 39L82 39L83 39L83 38L83 37L82 37L81 37L80 37L79 37L78 37L77 37L76 37L75 37L74 37L73 37L72 37L72 36L73 36L73 35L74 35L75 35L76 35L76 34L76 33L75 33L73 33z"/>
<path style="fill:#fdfdfd; stroke:none;" d="M122 33L121 36L122 33z"/>
<path style="fill:#929292; stroke:none;" d="M27 38L27 39L28 39L30 35L30 34L27 38z"/>
<path style="fill:#b0b0b0; stroke:none;" d="M76 34L76 35L81 35L76 34z"/>
<path style="fill:#a7a7a7; stroke:none;" d="M85 34L85 37L86 37L85 34z"/>
<path style="fill:#b0b0b0; stroke:none;" d="M88 34L88 37L89 37L90 34L88 34z"/>
<path style="fill:#d7d7d7; stroke:none;" d="M144 34L146 39L147 39L144 34z"/>
<path style="fill:#adadad; stroke:none;" d="M24 35L24 40L25 40L24 35z"/>
<path style="fill:#bdbdbd; stroke:none;" d="M28 35L28 36L29 45L29 46L29 47L30 47L31 47L32 47L32 46L32 45L34 36L34 35L33 35L32 35L31 35L30 35L28 35z"/>
<path style="fill:#757575; stroke:none;" d="M87.3333 35.6667L87.6667 36.3333L87.3333 35.6667z"/>
<path style="fill:#b1b1b1; stroke:none;" d="M98 35L98 36L103 37L103 36L98 35z"/>
<path style="fill:#fcfcfc; stroke:none;" d="M29 39L33 36L29 39z"/>
<path style="fill:#4b4b4b; stroke:none;" d="M98 36L98 37L99 37L99 38L100 38L101 38L103 46L104 46L105 46L105 47L106 47L107 47L107 46L108 46L109 46L109 45L109 44L109 43L104 36L102 37L101 37L100 37L100 36L98 36z"/>
<path style="fill:#919191; stroke:none;" d="M52 37L51 38L54 41L55 41L55 40L52 37z"/>
<path style="fill:#f6f6f6; stroke:none;" d="M53 37L53 40L56 40L56 37L53 37z"/>
<path style="fill:#3c3c3c; stroke:none;" d="M63 37L63 38L62 38L61 38L61 44L62 44L62 45L63 45L63 44L64 38L63 37z"/>
<path style="fill:#ebebeb; stroke:none;" d="M87 37L88 38L87 37z"/>
<path style="fill:#868686; stroke:none;" d="M88 37L86 38L86 39L88 37z"/>
<path style="fill:#bebebe; stroke:none;" d="M123 37L123 38L125 42L125 43L126 43L126 42L125 37L123 37z"/>
<path style="fill:#8c8c8c; stroke:none;" d="M119 38L119 39L119 40L118 47L119 47L120 47L124 45L125 45L125 46L126 46L126 45L126 44L120 40L121 39L122 39L122 38L121 38L119 38z"/>
<path style="fill:#fdfdfd; stroke:none;" d="M121 44C124.321 42.9011 124.737 41.4098 125 38L121 44z"/>
<path style="fill:#dddddd; stroke:none;" d="M128 38L128 39L128 40L128 41L128 42L128 43L128 44L123 55L122 55L122 56L121 56L121 57L121 58L122 58L122 59L123 59L123 58L123 57L124 57L124 56L125 56L125 55C128.582 55.1885 129.683 49.0194 130 45L130 44L130 43L129 43L129 42L129 41L129 40L129 39L128 38z"/>
<path style="fill:#d7d7d7; stroke:none;" d="M8 39L8 45L9 45L8 39z"/>
<path style="fill:#656565; stroke:none;" d="M27 39L28 45L28 46L29 46L29 45L29 39L27 39z"/>
<path style="fill:#ededed; stroke:none;" d="M64 39L64 40L64 46L64 47L65 47L65 46L65 40L64 39z"/>
<path style="fill:#f8f8f8; stroke:none;" d="M72 39L72 40L73 40L80 40L81 40L81 39L80 39L72 39z"/>
<path style="fill:#d4d4d4; stroke:none;" d="M79 40L78 40L77 40L76 40L76 41L77 41L78 41L79 41L79 42L86 45L87 45L87 44L87 43L87 42L87 41L88 41L88 40L88 39L79 40z"/>
<path style="fill:#bcbcbc; stroke:none;" d="M121 39L120 43L121 43L121 39z"/>
<path style="fill:#949494; stroke:none;" d="M61 40L61 41L57 44L57 45L58 45L59 46L62 41L61 40z"/>
<path style="fill:#c2c2c2; stroke:none;" d="M68 40L67 46L68 46L68 40z"/>
<path style="fill:#717171; stroke:none;" d="M70 40L70 41L69 41L69 42L69 43L70 43L77 42L78 42L79 42L79 41L78 41L70 40z"/>
<path style="fill:#767676; stroke:none;" d="M103 40L103 45L104 45L105 45L103 40z"/>
<path style="fill:#f7f7f7; stroke:none;" d="M106 40L106 42L109 42L109 40L106 40z"/>
<path style="fill:#858585; stroke:none;" d="M116 40L116 41L111 46L110 46L110 47L111 47L112 47L113 47L117 42L118 42L118 41L118 40L116 40z"/>
<path style="fill:#fbfbfb; stroke:none;" d="M32 41L32 42L31 42L31 43L32 43L32 44L32 45L32 46L32 47L33 47L34 47C35.7284 54.9487 40.6807 65.5221 40.6713 73.4236C40.6652 78.5009 38.0137 82.1483 36.7886 86.831C36.0988 89.4675 36.7524 94.9506 34.3048 96.7932C32.3774 98.2442 33.5058 89.8206 32.6327 89.5023C27.24 87.5362 28.3217 101.746 28 104L28 105L28 106L29 106L29 107L29 108L29 109L29 110L28 110L28 111L28 112L29 112L30 112L30 111L31 111L32 111L33 111L33 112L32 112L32 113L32 114L33 114L33 113L34 113L34 112L35 112L35 111L35 110L35 109L35 108L35 107C34.9361 96.5028 42.0566 80.0759 48.6188 72C53.9655 65.42 61.507 60.3932 64 52L64 51L64 50L65 50L65 49L65 48L64 48L64 49L63 49L63 50L63 51L62 51C59.674 62.0483 57.0333 53.7334 55.3333 50.3333C55.1122 49.891 52.9717 49.9839 53 49.3333C53.0513 48.1538 59.4047 47.4131 58.3333 45.5C58.597 45.9709 42.4589 46.8116 42.6667 46.5C41.776 47.836 46 48.648 46 49.6667C46 49.9818 42.3333 48.3313 42.3333 50.1667C42.3333 55.886 48.6305 50.2696 42.6667 53.5C42.2785 53.7102 43.1349 55.2434 43 55.3333C41.1941 56.5373 36.4903 47.2421 36 46L36 45L35 45L35 44L34 44L34 43L34 42L34 41L32 41z"/>
<path style="fill:#8d8d8d; stroke:none;" d="M82 41L82 42L79 47L79 48L80 48L80 49L81 49L82 49L83 49L84 49L85 43L84 43L84 42L83 42L82 41z"/>
<path style="fill:#636363; stroke:none;" d="M75 51L74 50L73 50L72 50L72 49L71 49L71 48L71 47L71 46L70 46L70 45L69 45L69 46L69 47L69 48L70 48L70 49L70 50L70 51L69 51L69 52L70 52L71 52L72 52L73 52L85 51L85 52L85 53L86 53L86 54L85 54L73 54L72 54L71 54L70 54L69 54L68 54L68 55L68 56L69 56L70 56L71 56L72 56L72 55L73 55C80.9651 55 84.8249 55.8418 91 61L91 62L91 63L92 63L92 62L92 61L92 60C89.4922 56.3176 89.9881 56.3913 93 54L94 54L95 54L95 55L96 55L97 55L97 54L96 54L96 53L95 53L94 53L87.3333 41.6667L84.1667 49.5L75 51z"/>
<path style="fill:#646464; stroke:none;" d="M63 42L63 43L63 44L63 45L62 44L61 44C54.4481 48.5938 58.7801 46.8667 58 52L58 53L59 53L60 53L60 54L60 55L61 55L61 54L62 54L64 45L64 44L64 43L63 42z"/>
<path style="fill:#ececec; stroke:none;" d="M72 42L72 43L72 44L73 44L81 44L82 44L82 43L82 42L81 42L72 42z"/>
<path style="fill:#bcbcbc; stroke:none;" d="M106 42L106 43L109 43L106 42z"/>
<path style="fill:#5e5e5e; stroke:none;" d="M40 44L38 47L37 49L37 50L38 51L45 50L46 50L47 50L47 49L46 49L42 44L40 44z"/>
<path style="fill:#4c4c4c; stroke:none;" d="M72 44L72 45L71 45L71 46L71 47L71 48L71 49L72 49L73 49L73 48L74 48L75 48L76 48L76 49L77 49L78 49L79 49L80 49L80 48L79 48L74 47L73 47L73 46L73 45L79 46L80 46L80 45L81 45L82 45L82 46L83 46L83 45L83 44L82 44L81 44L80 44L79 44L78 44L72 44z"/>
<path style="fill:#c6c6c6; stroke:none;" d="M41 45L41 47L43 45L41 45z"/>
<path style="fill:#959595; stroke:none;" d="M73 47L76 46L73 47z"/>
<path style="fill:#a8a8a8; stroke:none;" d="M80.6667 45.3333L81.3333 45.6667L80.6667 45.3333z"/>
<path style="fill:#f0f0f0; stroke:none;" d="M118 48L118 49L118 50L125 46L118 48z"/>
<path style="fill:#989898; stroke:none;" d="M44 46L44 47L45 47L52 47L53 47L53 46L52 46L44 46z"/>
<path style="fill:#dfdfdf; stroke:none;" d="M74 46L74 47L75 47L81 47L82 47L82 46L81 46L74 46z"/>
<path style="fill:#aeaeae; stroke:none;" d="M94 49L98 48L94 49z"/>
<path style="fill:#fdfdfd; stroke:none;" d="M99 48L98 48L97 48L96 48L95 48L95 49L95 50L96 50L96 51L97 51L98 51L99 51L99 52L111 51L112 51L112 50L113 50L113 49L114 49L114 48L114 47L113 47L112 47L99 48z"/>
<path style="fill:#8d8d8d; stroke:none;" d="M32.3333 48.6667L32.6667 49.3333L32.3333 48.6667z"/>
<path style="fill:#bcbcbc; stroke:none;" d="M33 48L33 52L36 51L33 48z"/>
<path style="fill:#a5a5a5; stroke:none;" d="M53 49L52 49L52 50L53 50L58 49L59 49L59 48L53 49z"/>
<path style="fill:#acacac; stroke:none;" d="M72 49L72 50L76 49L72 49z"/>
<path style="fill:#d8d8d8; stroke:none;" d="M75 49L75 50L75 51L76 51L83 50L84 50L85 50L85 49L84 49L83 49L75 49z"/>
<path style="fill:#767676; stroke:none;" d="M110 51L110 52L109 52L109 53L110 53L114 55L115 54L116 52L116 51L115 50L114 49L110 51z"/>
<path style="fill:#c6c6c6; stroke:none;" d="M58 50L55 55L56 56L57 56L58 56L59 56L59 51L58 50z"/>
<path style="fill:#b1b1b1; stroke:none;" d="M93 50L93 51L93 52L99 53L100 53L100 52L99 52L93 50z"/>
<path style="fill:#fdfdfd; stroke:none;" d="M116 50L116 51C108.037 63.6081 110.474 49.6953 98.1667 53.1667C96.0701 53.758 100.019 55.3265 100 55.6667C99.9497 56.5726 96.2142 55.2355 96.6667 57C97.0829 58.6233 102.065 62.6845 102 63.6667C101.993 63.7703 98.6025 62.7034 98.1667 64.1667C97.175 67.4959 103.021 72.8515 105 75L105 76L106 76L106 77L106 78L107 78L107 79L108 79L109 79L109 78L108 78L108 77L108 76L120 56L120 55L121 55L121 54L121 53L122 53L122 52L121 52L120 52L119 52L119 51L118 51L118 50L116 50z"/>
<path style="fill:#787878; stroke:none;" d="M118 50L118 51L122 52L122 51L118 50z"/>
<path style="fill:#b9b9b9; stroke:none;" d="M39 51L39 52L39 53L40 53L40 54L45 54L46 54L47 54L47 53L46 53L46 52L40 52L39 51z"/>
<path style="fill:#939393; stroke:none;" d="M54.6667 51.3333L55.3333 51.6667L54.6667 51.3333z"/>
<path style="fill:#e2e2e2; stroke:none;" d="M75 52L74 52L73 52L72 52L72 53L73 53L74 53L74 54L75 54L84 54L85 54L86 54L86 53L85 53L85 52L85 51L75 52z"/>
<path style="fill:#d8d8d8; stroke:none;" d="M100 52L100 53L100 54L101 54L102 54L111 54L112 54L112 53L113 53L113 52L112 52L111 52L111 53L110 53L103 53L102 53L102 52L100 52z"/>
<path style="fill:#545454; stroke:none;" d="M64 53L64 54L63 54L63 55L63 56L62 56L62 57L62 58L61 58L61 59L60 59L60 60L59 60L59 61C53.6809 64.7473 48.5442 69.5049 47 76L47 77L47 78L46 78L46 79L46 80L45 80L45 81L45 82L45 83L44 83L44 84L44 85L44 86L45 86L45 85L45 84L46 84L46 83L46 82L46 81L47 81L47 80L48 80L48 79L48 78L48 77L48 76L49 76L60 62L60 61L61 61L61 60L62 60L62 59L63 59L63 58L63 57L64 57L64 56L65 56L65 55L65 54L64 53z"/>
<path style="fill:#a1a1a1; stroke:none;" d="M57 57L57 58L58 58L61 55L60 54L57 57z"/>
<path style="fill:#b3b3b3; stroke:none;" d="M92 54L92 55L92 56L92 57L92 58L93 58L93 57L93 56L99 56L100 56L101 56L101 55L100 55L92 54z"/>
<path style="fill:#b0b0b0; stroke:none;" d="M108 55L108 56C110.58 56.6019 109.711 56.7884 109 59L110 59L114 56L114 55L113 54L108 55z"/>
<path style="fill:#c8c8c8; stroke:none;" d="M72 55L72 56L75 56L72 55z"/>
<path style="fill:#8b8b8b; stroke:none;" d="M75 55L75 56L76 56L82 56L83 56L83 55L82 55L75 55z"/>
<path style="fill:#fbfbfb; stroke:none;" d="M74 56L73 56L72 56L71 56L70 56L70 57L71 57L72 57L73 57L74 57L74 58L84 58L85 58L86 58L87 58L87 57L87 56L86 56L85 56L85 55L74 56z"/>
<path style="fill:#464646; stroke:none;" d="M89 55C89.2283 55.723 91.5397 62 91.3333 62C90.1 62 89.9118 57.8033 88 58.6667C86.4428 59.3699 88.5746 62.6954 88.1667 63.8333C87.0239 67.021 76.4334 68.2918 74.3333 65.6667C72.7738 63.7172 82.099 64.1537 81.3333 63.3333C80.1346 62.0489 70.0591 61.0542 68 61L68 60L68 59L69 59L70 59L75 58L74 58L73 58L72 58L71 58L70 58L69 58L68 58L67 58L67 59L66 59L66 60L67 60L67 61L66 61L65 61L65 62L65 63L65 64L66 64L67 64L68 64L69 64C70.3803 66.2677 69.4899 65.9308 67 66L66 66L65 66L64 66L64 67L65 67L66 67L79 68.8611L89.9167 67.0417L94 75.0463L98 67L98 69L99 69L99 70L100 70L100 71L101 71L101 72L102 72L102 71L102 70L101 70L101 69L100 69L100 68L99 68L89 55z"/>
<path style="fill:#d8d8d8; stroke:none;" d="M93 56L93 57L93 58L93 59L94 59C95.4471 62.2109 96.3491 63.8758 100 64L101 64L102 64L103 64L103 63L102 63L101 63L95 57L94 57L93 56z"/>
<path style="fill:#d0d0d0; stroke:none;" d="M87 57L82 59L81 59L81 60L82 60L88 59L88 58L87 57z"/>
<path style="fill:#8c8c8c; stroke:none;" d="M118 57L118 58L117 58L117 59L116 59L116 60L112 70L111 70L111 71L111 72L111 73L111 74L111 75L112 75L112 74L112 73L112 72L113 72L113 71L113 70L118 61L119 61L119 60L120 60L120 59L119 59L119 58L118 57z"/>
<path style="fill:#f9f9f9; stroke:none;" d="M123 57L123 58L123 59L122 59L122 58L121 58L120 58L120 59L120 60L119 60L119 61C115.588 63.8868 107.017 76.4397 107.5 80.1667C107.83 82.7107 110.363 84.4916 110.833 87C111.313 89.5598 107.195 89.5714 110 94C111.771 96.7965 120.02 95.0256 119.333 101.667C118.761 107.198 115.411 112.018 113 117L113 118L112 118L112 119L113 119L113 120L113 121L113 122L114 122L115 122L115 121L115 120L115 119L115 118L116 118L116 119L117 119L117 118L118 118L118 119L118 120L119 120L120 120L121 120L122 120L122 119L122 118L121 118L121 117C120.807 114.619 122.913 111.786 122.667 110C122.475 108.61 119 109.061 119 107C119 106.322 122.699 108.164 123.5 106.667C123.933 105.857 121.792 97.5395 121.333 96.3333C120.802 94.936 113.959 87.8588 114.833 86.6667C115.376 85.9268 120.381 91.3987 119.667 86.6667C118.928 81.7736 112.343 84.4006 112 79C112.009 79.1383 112.319 76.7023 112.667 77C113.277 77.5231 114.221 82.1763 115.667 81.3333C116.954 80.5823 115.529 76.1217 115.667 75C116.274 70.0674 121.016 69.9637 119 63L120 63L121 63L122 64L123 64L123 63L123 62L124 62L124 63L125 63L125 64L126 64L126 63L126 62L126 61L125 61L124 61L124 60L124 59L125 59L126 59L126 58L126 57L125 57L123 57z"/>
<path style="fill:#696969; stroke:none;" d="M75 58L75 59L75 60L80 60L81 60L81 59L75 58z"/>
<path style="fill:#828282; stroke:none;" d="M68 59L68 61L70 61L70 59L68 59z"/>
<path style="fill:#adadad; stroke:none;" d="M70 59L70 60L75 60L70 59z"/>
<path style="fill:#8f8f8f; stroke:none;" d="M38 60L38 61L41 66L41 67L42 67L42 66L39 61L38 60z"/>
<path style="fill:#eeeeee; stroke:none;" d="M70 60L70 61L71 61L72 61L72 62L73 62L74 62L84 62L85 62L86 62L87 62L88 62L88 61L88 60L87 60L86 60L85 60L73 60L72 60L70 60z"/>
<path style="fill:#1b1b1b; stroke:none;" d="M64 62L59 71L59 72L59 73L59 74L60 74L60 75L60 76L61 76L62 76L62 75L62 74L62 73C62.6974 68.5335 64.5335 66.6974 69 66L70 66L71 66L71 65L70 65L69 65L69 64L68 64L67 64L66 64L65 63L64 62z"/>
<path style="fill:#8c8c8c; stroke:none;" d="M80 62L80 63L81 63L87 63L88 63L88 62L87 62L80 62z"/>
<path style="fill:#d4d4d4; stroke:none;" d="M81 64L81 65L81 66L82 66L88 65L89 65L89 64L89 63L81 64z"/>
<path style="fill:#a0a0a0; stroke:none;" d="M73 64L73 65L73 66L74 66L81 67L82 67L83 67L83 66L82 66L81 66L75 64L73 64z"/>
<path style="fill:#d4d4d4; stroke:none;" d="M58 65L58 66L57 66L57 67L56 67L55 67L55 68L55 69L55 70L54 70L54 71L53 71L53 72L52 72C49.8645 79.567 42.5346 82.8686 48 91L47 91L46 91L46 92L45 92L45 93L45 94L44 94L44 95L44 96L45 96L46 96L47 96L48 96L49 96L50 96L51 96L52 96L53 96L54 96L55 96L56 96L56 95L56 94L56 93L55 93L54 93L54 94L53 94L52 94L52 93L52 92C51.4584 84.287 54.8865 81.5365 58 75L59 75L59 74L59 73L59 72L59 71L59 70L59 69L59 68L60 68L60 67L60 66L60 65L58 65z"/>
<path style="fill:#9d9d9d; stroke:none;" d="M83 65L83 66L86 66L83 65z"/>
<path style="fill:#bebebe; stroke:none;" d="M42 66L42 70L43 70L42 66z"/>
<path style="fill:#6c6c6c; stroke:none;" d="M75 66L75 67L80 67L75 66z"/>
<path style="fill:#7d7d7d; stroke:none;" d="M87 66L87 67L91 67L87 66z"/>
<path style="fill:#8d8d8d; stroke:none;" d="M54 67L54 68L53 68L53 69L49 76L48 76L48 77L48 78L48 79L49 79L49 78L49 77L50 77L54 70L55 70L55 69L55 68L54 67z"/>
<path style="fill:#777777; stroke:none;" d="M63 67L63 68L63 69L63 70L64 70L64 69L65 69L66 69L74 73L74 74L74 75L74 76L75 76L76 76L77 76L77 75L77 74L77 73L76 73L76 72L75 72L75 71L67 67L66 67L65 67L63 67z"/>
<path style="fill:#d5d5d5; stroke:none;" d="M81 69L80 69L80 70L79 70L79 71L79 72L78 72L78 73L78 74L78 75L77 75L77 76L78 76L79 76L79 77L80 77L80 78L81 78L81 77L81 76L81 75L82 75L82 74L82 73L91 70L92 70L92 71L92 72L91 72L90 72L85 75L85 76L86 76L86 75L87 75L87 74L88 74L89 74L90 74L90 73L91 73L92 73L92 74L93 74L93 73L93 72L93 71L93 70L93 69L93 68L92 68L92 67L91 67L81 69z"/>
<path style="fill:#737373; stroke:none;" d="M96 67L95 74L95 75L96 75L96 74L98 68L98 67L96 67z"/>
<path style="fill:#4e4e4e; stroke:none;" d="M62 68L62 69L62 70L62 71L62 72L62 73L62 74L63 74L74 78L74 79L74 80L74 81L74 82L75 82L75 81L75 80L76 80L76 79L77 79L77 78L77 77L77 76L76 76L75 76L65 73L64 73L64 72L64 71L64 70L63 70L63 69L62 68z"/>
<path style="fill:#bcbcbc; stroke:none;" d="M69 68L69 69L70 69L71 69L72 69L77 74L77 75L78 75L78 74L78 73L78 72L79 72L79 71L72 68L71 68L69 68z"/>
<path style="fill:#898989; stroke:none;" d="M81.6667 68.3333L82.3333 68.6667L81.6667 68.3333z"/>
<path style="fill:#232323; stroke:none;" d="M64 69L64 70L64 71L64 72L64 73L72 74L72 75L73 75L73 74L73 73L72 73L64 69z"/>
<path style="fill:#828282; stroke:none;" d="M77 69L77 70L80 70L77 69z"/>
<path style="fill:#bcbcbc; stroke:none;" d="M98 69L96 74L96 75L97 75L97 74L100 70L99 70L98 69z"/>
<path style="fill:#919191; stroke:none;" d="M84.6667 70.3333L85.3333 70.6667L84.6667 70.3333z"/>
<path style="fill:#333333; stroke:none;" d="M86 70L81 77L81 78L81 79L81 80L81 81L82 81L82 80L82 79L83 79L88 72L89 72L89 71L90 71L90 70L89 70L88 70L86 70z"/>
<path style="fill:#7f7f7f; stroke:none;" d="M89 72L92 70L89 72z"/>
<path style="fill:#ffffff; stroke:none;" d="M87 74L86 75L85 76L84 77L83 78L83 79L83 89L88.1667 90.6667L106 98L107 98L107 97L106 97L108 96L108 95L109 95L109 96L110 96L111 96L111 95L111 94L110 94C108.774 89.081 105.861 74.6102 100.866 72.3302C100.334 72.0877 88.931 73.764 87 74z"/>
<path style="fill:#cecece; stroke:none;" d="M40 72L40 73L39 73L39 74L39 75L39 76L39 77L38 77L38 78C34.7433 82.8522 32.9726 86.1122 34 92L33 92L32 92L32 93L32 94L32 95L32 96L33 96L33 97L33 98L33 99L34 99L35 99L35 98L35 97L35 96L35 95L35 94L36 94L36 93L37 93L41 79L40 79L40 78L40 77L40 76L40 75L41 75L41 74L41 73L42 73L42 72L40 72z"/>
<path style="fill:#929292; stroke:none;" d="M102 72L102 73L102 74L103 74L103 75L108 83L108 84L108 85L109 85L109 86L110 86L110 85L110 84L109 84L109 83L105 74L104 74L104 73L103 73L102 72z"/>
<path style="fill:#bfbfbf; stroke:none;" d="M46 74L47 77L46 74z"/>
<path style="fill:#b5b5b5; stroke:none;" d="M59 74L59 75L59 76L59 77L60 77L61 77L69 79L70 79L71 79L72 79L73 79L73 78L72 78L72 77L71 77L70 77C66.8755 74.4889 64.434 73.6893 61 76L60 76L60 75L59 74z"/>
<path style="fill:#939393; stroke:none;" d="M92.3333 74.6667L92.6667 75.3333L92.3333 74.6667z"/>
<path style="fill:#fefefe; stroke:none;" d="M57 75L56 76C56.5446 79.2678 56.7028 80.6757 54 80L53 80L53 81L53 82L53 83L53 84L53 85C55.8537 85 54.6699 86.6858 54 89L54 90C56.0234 90.1878 60.0914 92.0522 61.8889 91.5556C65.7013 90.5021 66.2202 86.4546 70 90L71 90L72 90L72 89L73 89L73 88L73 87L73 86L73 85L73 84L73 83L72 83L72 82L73 82L73 81L73 80L73 79L57 75z"/>
<path style="fill:#898989; stroke:none;" d="M45 76L45 77L45 78L45 79L44 79L43 79L40 90L40 91L39 91L39 92L39 93L39 94L39 95L39 96L40 96L40 95L40 94L40 93L40 92L41 92L41 91L44 80L45 80L46 80L46 79L46 78L47 78L47 77L46 77L45 76z"/>
<path style="fill:#656565; stroke:none;" d="M77 76L77 77L77 78L77 79L76 79L76 80L75 80L74 79L74 78L73 78L74 89L74 90L73 90L73 91L73 92L74 92L74 93L75 93L76 93L77 93L77 92L76 92L76 91L76 90L76 89L78 79L78 78L78 77L77 76z"/>
<path style="fill:#aeaeae; stroke:none;" d="M78 76L78 81L79 81L78 76z"/>
<path style="fill:#969696; stroke:none;" d="M83 76L83 78L85 76L83 76z"/>
<path style="fill:#cfcfcf; stroke:none;" d="M112 76L112 77L112 78L116 83L116 84L117 84L117 83L117 82L113 77L112 76z"/>
<path style="fill:#575757; stroke:none;" d="M44.3333 77.6667L44.6667 78.3333L44.3333 77.6667z"/>
<path style="fill:#f1f1f1; stroke:none;" d="M79 79L81 82L81 79L79 79z"/>
<path style="fill:#939393; stroke:none;" d="M82 79L80 84L81 84L82 79z"/>
<path style="fill:#dadada; stroke:none;" d="M105 79L105 80L105 81L105 82L106 82L109 88L110 88L110 89L110 90L111 90L111 89L111 88L111 87L107 81L106 81L106 80L105 79z"/>
<path style="fill:#ececec; stroke:none;" d="M44 80L43 84L44 84L44 80z"/>
<path style="fill:#fbfbfb; stroke:none;" d="M52 83L52 84L51 84L51 85L51 86L51 87L52 87L52 88L51 88L51 89L52 89L52 90L52 91L52 92L52 93L52 94L53 94L54 94L54 93L55 93L83 95L83 94L84 94L84 93L85 93L86 93L87 93L88 93L88 92L89 92L90 92L90 91L89 91L88 91L88 90L87 90L87 89L86 89L86 90L86 91L85 91L84 91L84 90L83 90L83 89L83 88L83 87L82 87L82 86L82 85L82 84L81 84L80 84L79 84L77.8889 93.1944L67.6944 87.5833L58 91L58 90L57 90L56 90L55 90L54 90L54 89L54 88L55 88L55 87L55 86L55 85L55 84L54 84L54 85L53 85L53 84L52 83z"/>
<path style="fill:#909090; stroke:none;" d="M73 83L73 84L72 91L72 92L73 92L73 91L74 85L74 84L73 83z"/>
<path style="fill:#d4d4d4; stroke:none;" d="M76 83L76 84L76 92L77 92L77 93L76 93L76 94L77 94L78 94L79 94L79 93L78 93L78 92L77 85L77 84L78 84L79 84L80 84L80 83L79 83L78 83L76 83z"/>
<path style="fill:#acacac; stroke:none;" d="M42 84L42 85L43 85L43 86L42 94L42 95L42 96L43 96L44 96L44 95L44 94L45 94C47.0907 90.5611 47.0907 89.4389 45 86L44 86L44 85L44 84L42 84z"/>
<path style="fill:#e0e0e0; stroke:none;" d="M42 85L42 86L42 87L42 88L41 88L40 97L40 98L40 99L39 99L39 100L40 100L41 100L41 99L41 98L41 97L43 88L43 87L43 86L42 85z"/>
<path style="fill:#b1b1b1; stroke:none;" d="M114 86L114 87L115 87L118 93L119 93L119 94L120 94L120 93L120 92L119 92L116 87L116 86L114 86z"/>
<path style="fill:#5f5f5f; stroke:none;" d="M43 87L43 90L44 90L43 87z"/>
<path style="fill:#b5b5b5; stroke:none;" d="M56 94L56 95L56 96L62 94L62 93L56 94z"/>
<path style="fill:#979797; stroke:none;" d="M62 93L62 94L63 94L64 94L70 94L71 94L72 94L72 93L71 93L70 93L64 93L62 93z"/>
<path style="fill:#c0c0c0; stroke:none;" d="M84 93L84 94L85 94L92 94L93 94L93 93L92 93L84 93z"/>
<path style="fill:#3e3e3e; stroke:none;" d="M53 97L52 97L51 97L51 98L50 98L49 98L49 99L48 99L47 99L47 100L46 100L45 100L45 101L44 101L44 102L45 102L46 102L46 101L47 101L48 101L48 100L49 100L50 100L50 99L51 99L52 99L53 99L53 98L71 95L71 96L71 97L71 98L72 98L72 97L72 96L73 96L73 97L74 97L75 97L76 97L77 97L78 97L79 97L80 97L81 97L81 96L80 96L79 96L78 96L77 96L76 96L76 95L75 95L74 95L74 94L73 94L53 97z"/>
<path style="fill:#535353; stroke:none;" d="M83 94L83 95L82 95L82 96L83 96L84 96L91 95L92 95L93 95L93 94L92 94L83 94z"/>
<path style="fill:#fcfcfc; stroke:none;" d="M86 100L85 100L84 100L84 101L83 101L82 101L82 102L83 102L84 102L84 103L84 104L85 104L86 104L87 104L96 112L97 112L98 112L98 113L98 114L98 115L98 116L99 116L99 117L99 118L99 119L100 119L101 119L101 118L102 118L102 117L103 117L103 116L103 115L104 115L104 114L104 113L103 113L94 103L94 104L93 104L93 103L92 103L92 102L93 102L93 101L94 101L95 101L110 104L116 100L116 101L115 101L115 102L115 103L114 103L114 104L114 106L114 107L114 108L114 109L113 109L113 110L113 111L113 112L113 113L114 113L115 113L116 113L117 113L117 112L117 111L116 111L116 110L116 109L116 108L116 107L117 107L117 106L117 105L118 105L118 104L117 104L117 103C117 97.507 109.736 89.9962 104.667 96.3333C104.989 95.9307 105.795 99.6282 104.667 99.8333C98.622 100.932 93.0273 97.7808 86 100z"/>
<path style="fill:#a9a9a9; stroke:none;" d="M38 95L38 100L39 100L38 95z"/>
<path style="fill:#5b5b5b; stroke:none;" d="M62 96L61 96L60 96L60 97L61 97L62 97L63 97L70 97L70 98L71 98L71 97L71 96L71 95L62 96z"/>
<path style="fill:#717171; stroke:none;" d="M76 95L76 96L77 96L83 97L84 97L84 96L83 96L76 95z"/>
<path style="fill:#979797; stroke:none;" d="M83 97L82 97L81 97L80 97L79 97L79 98L79 99L80 99L80 100L79 100L78 100L78 101L79 101L80 101L81 101L82 101L83 101L84 101L84 100L96 97L97 97L98 97L98 98L99 98L100 98L100 99L101 99L102 99L103 99L103 98L102 98L101 98L101 97L100 97L99 97L99 96L98 96L83 97z"/>
<path style="fill:#939393; stroke:none;" d="M42 97L41 97L41 98L41 99L41 100L42 100L43 100L43 101L43 102L51 97L52 97L53 97L54 97L54 96L53 96L52 96L42 97z"/>
<path style="fill:#777777; stroke:none;" d="M69 97L68 97L67 97L67 98L66 98L66 99L67 99L68 99L78 101L78 100L79 100L80 100L80 99L79 99L79 98L79 97L69 97z"/>
<path style="fill:#cfcfcf; stroke:none;" d="M89 96L89 97L89 98L89 99L96 98L97 98L98 98L98 97L97 97L96 97L90 97L89 96z"/>
<path style="fill:#bdbdbd; stroke:none;" d="M115 96L115 97L116 97L117 104L118 104L119 104L119 103L120 102L117 97L117 96L115 96z"/>
<path style="fill:#5d5d5d; stroke:none;" d="M42 98L42 99L48 98L48 97L42 98z"/>
<path style="fill:#909090; stroke:none;" d="M55 97L55 98L59 98L55 97z"/>
<path style="fill:#c2c2c2; stroke:none;" d="M59 97L59 98L64 98L59 97z"/>
<path style="fill:#f4f4f4; stroke:none;" d="M84 97L84 99L86 99L84 97z"/>
<path style="fill:#fefefe; stroke:none;" d="M28 112L27 112L27 113L27 114L27 115L27 116L27 117L27 118L27 119L27 120L28 120L29 120L30 120L31 120C32.7637 120 36.5215 118.702 37.8333 119C41.0709 119.736 46.3641 125.44 50.5 120.5C55.413 114.632 44.215 114.005 44 112.5C43.3876 108.213 52.6614 107.146 54.8333 105.833C55.4723 105.447 55.9818 102.999 56 103C57.3177 103.088 57.1337 108.534 58.3333 109.333C59.3017 109.979 58.69 104.78 58.8333 104.667C59.296 104.301 61.6175 106.702 62 107L63 107L64 107L65 107L65 108L66 108L66 107L66 106L66 105L67 105L67 104L68 104L68 103L69 103L70 103L71 103L71 102L71 101L70 101L70 100L69 100L69 99L68 99L67 99L66 99L66 98L65 98L45 103L36.3333 100.5L32.6667 113L28 112z"/>
<path style="fill:#c7c7c7; stroke:none;" d="M102 99L102 100L106 100L102 99z"/>
<path style="fill:#c5c5c5; stroke:none;" d="M50 99L50 100L42 100L41 100L40 100L40 101L40 102L40 103L40 104L41 104L42 104L42 103L49 101L50 101L51 101L52 101L52 100L52 99L50 99z"/>
<path style="fill:#fefefe; stroke:none;" d="M114 99C110.842 104.298 104.51 103.922 99 103L99 102L98 102L97 102L97 101L96 101L95 101L94 101L93 101L93 102L92 102L92 103L93 103L93 104L94 104L94 103L95 103L95 104L96 104L96 103L97 103C99.1399 107.99 100.688 113.47 102.623 118.103C103.733 120.758 108.503 116.108 107 123L107 124L107 125L108 125L109 125L109 124L110 124L110 123L110 122L110 121L111 121L112 121L112 122L112 123L113 123L113 122L113 121L113 120L116 100L114 99z"/>
<path style="fill:#c7c7c7; stroke:none;" d="M70 100L70 101L71 101L71 102L72 102L73 102C74.7705 105.863 76.1106 104.647 80 103L81 103L82 103L83 103L83 102L82 102L82 101L81 101L80 101L72 101L72 100L70 100z"/>
<path style="fill:#f4f4f4; stroke:none;" d="M59 116L58 116L58 115L57 115L56 115L55 115L54 115L53 115L53 116L53 117L53 118L53 119L53 120L53 121L53 122L53 123L54 123L55 123L56 123L56 122L57 122L58 122L59 122L59 121L59 120L60 120L61 120L61 119L60 119L60 118C61.1639 113.012 61.4219 120.28 63.3333 117.5C66.2505 113.257 63.1865 111.053 70 109.167C75.3114 107.696 84.23 115.122 85 108L85 107L86 107L86 108L86 109L86 110L87 110L87 111L88 111L89 111L90 111L91 111L92 111L92 110L92 109L92 108L91 108L90 108L89 108L88 108L87 108L87 107L87 106L87 105L88 105L88 104L87 104L86 104L85 104L84 104L84 103C80.8146 102.554 78.5592 105.213 75.8434 105.022C74.1747 104.905 73.5421 102.738 71.706 102.66C65.1938 102.385 59.4799 110.549 59 116z"/>
<path style="fill:#a0a0a0; stroke:none;" d="M75 103L77 107L75 103z"/>
<path style="fill:#f9f9f9; stroke:none;" d="M87 105L87 106L87 107L87 108L88 108L89 108L90 108L91 108L92 108L92 109L92 110L93 110L93 111L93 112C95.1876 119.134 95.9397 127.293 105 128L105 126L106 126L106 127L107 127L107 128L108 128L109 128L109 127L110 127L111 127L111 126L111 125L111 124L112 124L112 123L112 122L112 121L111 121L111 120L110 120L110 121L110 122L110 123L110 124L109 124L109 125L108 125L107 125L107 124C110.161 114.591 103.943 120.942 100.239 117.75C97.4571 115.352 97.765 112.499 94 111L94 110L94 109L94 108L95 108L96 108L96 107L95 107L94 107L94 106L93 106L92 106L92 105L91 105L90 105L90 106L89 106L89 105L87 105z"/>
<path style="fill:#cacaca; stroke:none;" d="M118 106L118 107L121 110L122 110L122 109L118 106z"/>
<path style="fill:#fdfdfd; stroke:none;" d="M73 109L72 109L71 109L70 109L69 109L68 109L68 110L68 111L67 111L66 111L66 110L65 110L64 110L64 111L64 112L64 113L63 113L63 114L64 114L64 115L64 116L65 116L66 116L67 116L68 116L69 116L70 116L71 116L90 117L90 116L91 116L91 115L92 115L92 116L92 117L92 118L92 119L92 120L93 120L94 120L95 120L95 119L94 119L94 118L94 117L94 116L94 115L94 114L94 113L94 112L93 112L93 111L93 110L92 110L92 111L73 109z"/>
<path style="fill:#a8a8a8; stroke:none;" d="M116 108L118 111L116 108z"/>
<path style="fill:#fdfdfd; stroke:none;" d="M115 118L107 130L107 131L108 131L108 132L109 132L109 133L109 134L110 134L110 135L111 135L112 135L113 135L114 135L115 135C119.255 131.108 121.825 127.9 122 122L122 121L122 120L121 120L120 120L119 120L118 120L118 119L118 118L117 118L117 119L116 119L115 118z"/>
</svg>
